<svg width="65" height="63" viewBox="0 0 65 63" fill="none" xmlns="http://www.w3.org/2000/svg">
<path opacity="0.5" d="M64.067 0.424015L48.388 57.7958C48.3082 58.0562 47.9893 58.1343 47.8033 57.952L37.3064 47.6652L45.1724 18.9142C45.2522 18.6538 45.013 18.4194 44.7472 18.4975L15.4089 26.2061L4.96507 15.9714C4.77905 15.7891 4.85878 15.4766 5.12452 15.3985L63.6418 0.00733391C63.9075 -0.0447512 64.1467 0.189632 64.067 0.424015Z" fill="#00B37E"/>
<path opacity="0.5" d="M37.3058 47.6647L33.2665 62.509C33.1868 62.7694 32.8679 62.8476 32.6818 62.6653L0.101381 30.7631C-0.0846408 30.5808 -0.00491742 30.2683 0.260829 30.1902L15.4084 26.2057L37.3058 47.6647Z" fill="#00B37E"/>
<path d="M45.1711 18.9137L37.305 47.6647L15.4076 26.2057L44.7459 18.4971C45.0117 18.4189 45.2508 18.6533 45.1711 18.9137Z" fill="#00B37E"/>
</svg>
